<svg xmlns="http://www.w3.org/2000/svg" width="26" height="27"><defs><filter id="a" width="46" height="47" x="-10" y="-10" filterUnits="userSpaceOnUse"><feOffset dy="1" in="SourceGraphic" result="FeOffset1089Out"/><feGaussianBlur in="FeOffset1089Out" result="FeGaussianBlur1090Out" stdDeviation="0 0"/></filter><mask id="b" width="2" height="2" x="-1" y="-1"><path fill="#fff" d="M0 0h26v26H0z"/><path d="M12.785 26C5.74 26 .006 20.168.006 13S5.74 0 12.786 0c7.046 0 12.778 5.832 12.778 13s-5.732 13-12.779 13zm5.372-5.985c-.873 2.009-2.025 3.425-3.011 4.367a11.346 11.346 0 005.348-2.799 15.828 15.828 0 00-2.337-1.568zm-13.11 1.54a11.349 11.349 0 005.378 2.827c-1.009-.963-2.19-2.423-3.07-4.504-.763.437-1.534.99-2.309 1.677zm8.41-3.048v5.546c.967-.754 2.443-2.21 3.485-4.63a11.694 11.694 0 00-3.484-.916zm-4.892.767c1.044 2.51 2.562 4.01 3.548 4.78v-5.586a9.968 9.968 0 00-3.548.806zm10.066-.499a17.84 17.84 0 012.794 1.835 11.691 11.691 0 002.775-6.926h-4.7c-.062 1.969-.39 3.656-.869 5.091zm-17.26-5.09a11.69 11.69 0 002.74 6.885 15.108 15.108 0 012.765-1.987c-.444-1.393-.747-3.017-.806-4.899zm12.087 3.482c1.441.134 2.774.527 3.945 1.024.41-1.275.692-2.768.751-4.507h-4.696zm-6.042-3.483c.056 1.647.312 3.075.688 4.305a11.096 11.096 0 014.009-.867v-3.438zM19.5 12.316h4.7a11.69 11.69 0 00-2.74-6.885 15.094 15.094 0 01-2.766 1.986c.444 1.393.747 3.017.806 4.899zm-6.042 0h4.696c-.056-1.647-.312-3.075-.687-4.304a11.096 11.096 0 01-4.01.866zm-6.042 0h4.697V8.833c-1.442-.134-2.775-.527-3.946-1.024-.41 1.275-.692 2.768-.751 4.507zm-6.045 0H6.07c.062-1.969.39-3.656.869-5.091a17.799 17.799 0 01-2.794-1.836 11.691 11.691 0 00-2.774 6.927zM13.458 1.947v5.585a9.968 9.968 0 003.547-.806c-1.044-2.51-2.562-4.01-3.547-4.779zm-4.83 4.63a11.7 11.7 0 003.485.916V1.947c-.966.754-2.443 2.21-3.485 4.63zm6.518-4.96c1.008.964 2.19 2.424 3.07 4.505.762-.437 1.533-.99 2.308-1.677a11.352 11.352 0 00-5.379-2.827zm-10.07 2.8a15.79 15.79 0 002.337 1.568c.873-2.009 2.026-3.425 3.012-4.367a11.35 11.35 0 00-5.348 2.799z"/></mask></defs><g filter="url(#a)"><path fill="none" d="M12.785 26C5.74 26 .006 20.168.006 13S5.74 0 12.786 0c7.046 0 12.778 5.832 12.778 13s-5.732 13-12.779 13zm5.372-5.985c-.873 2.009-2.025 3.425-3.011 4.367a11.346 11.346 0 005.348-2.799 15.828 15.828 0 00-2.337-1.568zm-13.11 1.54a11.349 11.349 0 005.378 2.827c-1.009-.963-2.19-2.423-3.07-4.504-.763.437-1.534.99-2.309 1.677zm8.41-3.048v5.546c.967-.754 2.443-2.21 3.485-4.63a11.694 11.694 0 00-3.484-.916zm-4.892.767c1.044 2.51 2.562 4.01 3.548 4.78v-5.586a9.968 9.968 0 00-3.548.806zm10.066-.499a17.84 17.84 0 012.794 1.835 11.691 11.691 0 002.775-6.926h-4.7c-.062 1.969-.39 3.656-.869 5.091zm-17.26-5.09a11.69 11.69 0 002.74 6.885 15.108 15.108 0 012.765-1.987c-.444-1.393-.747-3.017-.806-4.899zm12.087 3.482c1.441.134 2.774.527 3.945 1.024.41-1.275.692-2.768.751-4.507h-4.696zm-6.042-3.483c.056 1.647.312 3.075.688 4.305a11.096 11.096 0 014.009-.867v-3.438zM19.5 12.316h4.7a11.69 11.69 0 00-2.74-6.885 15.094 15.094 0 01-2.766 1.986c.444 1.393.747 3.017.806 4.899zm-6.042 0h4.696c-.056-1.647-.312-3.075-.687-4.304a11.096 11.096 0 01-4.01.866zm-6.042 0h4.697V8.833c-1.442-.134-2.775-.527-3.946-1.024-.41 1.275-.692 2.768-.751 4.507zm-6.045 0H6.07c.062-1.969.39-3.656.869-5.091a17.799 17.799 0 01-2.794-1.836 11.691 11.691 0 00-2.774 6.927zM13.458 1.947v5.585a9.968 9.968 0 003.547-.806c-1.044-2.51-2.562-4.01-3.547-4.779zm-4.83 4.63a11.7 11.7 0 003.485.916V1.947c-.966.754-2.443 2.21-3.485 4.63zm6.518-4.96c1.008.964 2.19 2.424 3.07 4.505.762-.437 1.533-.99 2.308-1.677a11.352 11.352 0 00-5.379-2.827zm-10.07 2.8a15.79 15.79 0 002.337 1.568c.873-2.009 2.026-3.425 3.012-4.367a11.35 11.35 0 00-5.348 2.799z" mask="url(&quot;#b&quot;)"/><path fill="#fff" d="M12.785 26C5.74 26 .006 20.168.006 13S5.74 0 12.786 0c7.046 0 12.778 5.832 12.778 13s-5.732 13-12.779 13zm5.372-5.985c-.873 2.009-2.025 3.425-3.011 4.367a11.346 11.346 0 005.348-2.799 15.828 15.828 0 00-2.337-1.568zm-13.11 1.54a11.349 11.349 0 005.378 2.827c-1.009-.963-2.19-2.423-3.07-4.504-.763.437-1.534.99-2.309 1.677zm8.41-3.048v5.546c.967-.754 2.443-2.21 3.485-4.63a11.694 11.694 0 00-3.484-.916zm-4.892.767c1.044 2.51 2.562 4.01 3.548 4.78v-5.586a9.968 9.968 0 00-3.548.806zm10.066-.499a17.84 17.84 0 012.794 1.835 11.691 11.691 0 002.775-6.926h-4.7c-.062 1.969-.39 3.656-.869 5.091zm-17.26-5.09a11.69 11.69 0 002.74 6.885 15.108 15.108 0 012.765-1.987c-.444-1.393-.747-3.017-.806-4.899zm12.087 3.482c1.441.134 2.774.527 3.945 1.024.41-1.275.692-2.768.751-4.507h-4.696zm-6.042-3.483c.056 1.647.312 3.075.688 4.305a11.096 11.096 0 014.009-.867v-3.438zM19.5 12.316h4.7a11.69 11.69 0 00-2.74-6.885 15.094 15.094 0 01-2.766 1.986c.444 1.393.747 3.017.806 4.899zm-6.042 0h4.696c-.056-1.647-.312-3.075-.687-4.304a11.096 11.096 0 01-4.01.866zm-6.042 0h4.697V8.833c-1.442-.134-2.775-.527-3.946-1.024-.41 1.275-.692 2.768-.751 4.507zm-6.045 0H6.07c.062-1.969.39-3.656.869-5.091a17.799 17.799 0 01-2.794-1.836 11.691 11.691 0 00-2.774 6.927zM13.458 1.947v5.585a9.968 9.968 0 003.547-.806c-1.044-2.51-2.562-4.01-3.547-4.779zm-4.83 4.63a11.7 11.7 0 003.485.916V1.947c-.966.754-2.443 2.21-3.485 4.63zm6.518-4.96c1.008.964 2.19 2.424 3.07 4.505.762-.437 1.533-.99 2.308-1.677a11.352 11.352 0 00-5.379-2.827zm-10.07 2.8a15.79 15.79 0 002.337 1.568c.873-2.009 2.026-3.425 3.012-4.367a11.35 11.35 0 00-5.348 2.799z"/></g><path fill="#fff" d="M12.785 26C5.74 26 .006 20.168.006 13S5.74 0 12.786 0c7.046 0 12.778 5.832 12.778 13s-5.732 13-12.779 13zm5.372-5.985c-.873 2.009-2.025 3.425-3.011 4.367a11.346 11.346 0 005.348-2.799 15.828 15.828 0 00-2.337-1.568zm-13.11 1.54a11.349 11.349 0 005.378 2.827c-1.009-.963-2.19-2.423-3.07-4.504-.763.437-1.534.99-2.309 1.677zm8.41-3.048v5.546c.967-.754 2.443-2.21 3.485-4.63a11.694 11.694 0 00-3.484-.916zm-4.892.767c1.044 2.51 2.562 4.01 3.548 4.78v-5.586a9.968 9.968 0 00-3.548.806zm10.066-.499a17.84 17.84 0 012.794 1.835 11.691 11.691 0 002.775-6.926h-4.7c-.062 1.969-.39 3.656-.869 5.091zm-17.26-5.09a11.69 11.69 0 002.74 6.885 15.108 15.108 0 012.765-1.987c-.444-1.393-.747-3.017-.806-4.899zm12.087 3.482c1.441.134 2.774.527 3.945 1.024.41-1.275.692-2.768.751-4.507h-4.696zm-6.042-3.483c.056 1.647.312 3.075.688 4.305a11.096 11.096 0 014.009-.867v-3.438zM19.5 12.316h4.7a11.69 11.69 0 00-2.74-6.885 15.094 15.094 0 01-2.766 1.986c.444 1.393.747 3.017.806 4.899zm-6.042 0h4.696c-.056-1.647-.312-3.075-.687-4.304a11.096 11.096 0 01-4.01.866zm-6.042 0h4.697V8.833c-1.442-.134-2.775-.527-3.946-1.024-.41 1.275-.692 2.768-.751 4.507zm-6.045 0H6.07c.062-1.969.39-3.656.869-5.091a17.799 17.799 0 01-2.794-1.836 11.691 11.691 0 00-2.774 6.927zM13.458 1.947v5.585a9.968 9.968 0 003.547-.806c-1.044-2.51-2.562-4.01-3.547-4.779zm-4.83 4.63a11.7 11.7 0 003.485.916V1.947c-.966.754-2.443 2.21-3.485 4.63zm6.518-4.96c1.008.964 2.19 2.424 3.07 4.505.762-.437 1.533-.99 2.308-1.677a11.352 11.352 0 00-5.379-2.827zm-10.07 2.8a15.79 15.79 0 002.337 1.568c.873-2.009 2.026-3.425 3.012-4.367a11.35 11.35 0 00-5.348 2.799z"/><path fill="#7d7d7d" d="M12.785 26C5.74 26 .006 20.168.006 13S5.74 0 12.786 0c7.046 0 12.778 5.832 12.778 13s-5.732 13-12.779 13zm5.372-5.985c-.873 2.009-2.025 3.425-3.011 4.367a11.346 11.346 0 005.348-2.799 15.828 15.828 0 00-2.337-1.568zm-13.11 1.54a11.349 11.349 0 005.378 2.827c-1.009-.963-2.19-2.423-3.07-4.504-.763.437-1.534.99-2.309 1.677zm8.41-3.048v5.546c.967-.754 2.443-2.21 3.485-4.63a11.694 11.694 0 00-3.484-.916zm-4.892.767c1.044 2.51 2.562 4.01 3.548 4.78v-5.586a9.968 9.968 0 00-3.548.806zm10.066-.499a17.84 17.84 0 012.794 1.835 11.691 11.691 0 002.775-6.926h-4.7c-.062 1.969-.39 3.656-.869 5.091zm-17.26-5.09a11.69 11.69 0 002.74 6.885 15.108 15.108 0 012.765-1.987c-.444-1.393-.747-3.017-.806-4.899zm12.087 3.482c1.441.134 2.774.527 3.945 1.024.41-1.275.692-2.768.751-4.507h-4.696zm-6.042-3.483c.056 1.647.312 3.075.688 4.305a11.096 11.096 0 014.009-.867v-3.438zM19.5 12.316h4.7a11.69 11.69 0 00-2.74-6.885 15.094 15.094 0 01-2.766 1.986c.444 1.393.747 3.017.806 4.899zm-6.042 0h4.696c-.056-1.647-.312-3.075-.687-4.304a11.096 11.096 0 01-4.01.866zm-6.042 0h4.697V8.833c-1.442-.134-2.775-.527-3.946-1.024-.41 1.275-.692 2.768-.751 4.507zm-6.045 0H6.07c.062-1.969.39-3.656.869-5.091a17.799 17.799 0 01-2.794-1.836 11.691 11.691 0 00-2.774 6.927zM13.458 1.947v5.585a9.968 9.968 0 003.547-.806c-1.044-2.51-2.562-4.01-3.547-4.779zm-4.83 4.63a11.7 11.7 0 003.485.916V1.947c-.966.754-2.443 2.21-3.485 4.63zm6.518-4.96c1.008.964 2.19 2.424 3.07 4.505.762-.437 1.533-.99 2.308-1.677a11.352 11.352 0 00-5.379-2.827zm-10.07 2.8a15.79 15.79 0 002.337 1.568c.873-2.009 2.026-3.425 3.012-4.367a11.35 11.35 0 00-5.348 2.799z"/></svg>