<svg xmlns="http://www.w3.org/2000/svg" width="26" height="25"><defs><filter id="a" width="46" height="45" x="-10" y="-10" filterUnits="userSpaceOnUse"><feOffset dy="1" in="SourceGraphic" result="FeOffset1110Out"/><feGaussianBlur in="FeOffset1110Out" result="FeGaussianBlur1111Out" stdDeviation="0 0"/></filter><mask id="b" width="2" height="2" x="-1" y="-1"><path fill="#fff" d="M0 0h26v24H0z"/><path d="M6.966 23.285a.68.68 0 01-.672-.666l-.12-5.856-5.68-2.872a.679.679 0 01-.27-.98l.001-.002a.477.477 0 01.018-.025.67.67 0 01.258-.219L24.667.443a.668.668 0 01.95.376.688.688 0 01-.024.507l-9.06 21.384a.69.69 0 01-.12.198h-.001a.547.547 0 01-.025.027s-.001.001 0 0a.667.667 0 01-.45.2l-.02.001h-.008a.661.661 0 01-.387-.124l-5.12-3.57-2.916 3.595a.67.67 0 01-.52.248zm4.302-4.89l3.937 2.745-.177-7.216zm-3.752-1.743l.084 4.1 2.153-2.655.006-.007a.147.147 0 01.004-.005L19.39 6.643l-5.422 4.57a.636.636 0 01-.03.026zm8.819-4.28l.17 6.953 6.109-14.417zM2.84 13.557l3.903 1.974 4.314-3.636zM20.103 4.27L5.577 11.618l7.645-1.547z"/></mask></defs><g filter="url(#a)"><path fill="none" d="M6.966 23.285a.68.68 0 01-.672-.666l-.12-5.856-5.68-2.872a.679.679 0 01-.27-.98l.001-.002a.477.477 0 01.018-.025.67.67 0 01.258-.219L24.667.443a.668.668 0 01.95.376.688.688 0 01-.024.507l-9.06 21.384a.69.69 0 01-.12.198h-.001a.547.547 0 01-.025.027s-.001.001 0 0a.667.667 0 01-.45.2l-.02.001h-.008a.661.661 0 01-.387-.124l-5.12-3.57-2.916 3.595a.67.67 0 01-.52.248zm4.302-4.89l3.937 2.745-.177-7.216zm-3.752-1.743l.084 4.1 2.153-2.655.006-.007a.147.147 0 01.004-.005L19.39 6.643l-5.422 4.57a.636.636 0 01-.03.026zm8.819-4.28l.17 6.953 6.109-14.417zM2.84 13.557l3.903 1.974 4.314-3.636zM20.103 4.27L5.577 11.618l7.645-1.547z" mask="url(&quot;#b&quot;)"/><path fill="#fff" d="M6.966 23.285a.68.68 0 01-.672-.666l-.12-5.856-5.68-2.872a.679.679 0 01-.27-.98l.001-.002a.477.477 0 01.018-.025.67.67 0 01.258-.219L24.667.443a.668.668 0 01.95.376.688.688 0 01-.024.507l-9.06 21.384a.69.69 0 01-.12.198h-.001a.547.547 0 01-.025.027s-.001.001 0 0a.667.667 0 01-.45.2l-.02.001h-.008a.661.661 0 01-.387-.124l-5.12-3.57-2.916 3.595a.67.67 0 01-.52.248zm4.302-4.89l3.937 2.745-.177-7.216zm-3.752-1.743l.084 4.1 2.153-2.655.006-.007a.147.147 0 01.004-.005L19.39 6.643l-5.422 4.57a.636.636 0 01-.03.026zm8.819-4.28l.17 6.953 6.109-14.417zM2.84 13.557l3.903 1.974 4.314-3.636zM20.103 4.27L5.577 11.618l7.645-1.547z"/></g><path fill="#fff" d="M6.966 23.285a.68.68 0 01-.672-.666l-.12-5.856-5.68-2.872a.679.679 0 01-.27-.98l.001-.002a.477.477 0 01.018-.025.67.67 0 01.258-.219L24.667.443a.668.668 0 01.95.376.688.688 0 01-.024.507l-9.06 21.384a.69.69 0 01-.12.198h-.001a.547.547 0 01-.025.027s-.001.001 0 0a.667.667 0 01-.45.2l-.02.001h-.008a.661.661 0 01-.387-.124l-5.12-3.57-2.916 3.595a.67.67 0 01-.52.248zm4.302-4.89l3.937 2.745-.177-7.216zm-3.752-1.743l.084 4.1 2.153-2.655.006-.007a.147.147 0 01.004-.005L19.39 6.643l-5.422 4.57a.636.636 0 01-.03.026zm8.819-4.28l.17 6.953 6.109-14.417zM2.84 13.557l3.903 1.974 4.314-3.636zM20.103 4.27L5.577 11.618l7.645-1.547z"/><path fill="#701dbb" d="M6.966 23.285a.68.68 0 01-.672-.666l-.12-5.856-5.68-2.872a.679.679 0 01-.27-.98l.001-.002a.477.477 0 01.018-.025.67.67 0 01.258-.219L24.667.443a.668.668 0 01.95.376.688.688 0 01-.024.507l-9.06 21.384a.69.69 0 01-.12.198h-.001a.547.547 0 01-.025.027s-.001.001 0 0a.667.667 0 01-.45.2l-.02.001h-.008a.661.661 0 01-.387-.124l-5.12-3.57-2.916 3.595a.67.67 0 01-.52.248zm4.302-4.89l3.937 2.745-.177-7.216zm-3.752-1.743l.084 4.1 2.153-2.655.006-.007a.147.147 0 01.004-.005L19.39 6.643l-5.422 4.57a.636.636 0 01-.03.026zm8.819-4.28l.17 6.953 6.109-14.417zM2.84 13.557l3.903 1.974 4.314-3.636zM20.103 4.27L5.577 11.618l7.645-1.547z"/></svg>