<svg xmlns="http://www.w3.org/2000/svg" width="21" height="27"><defs><filter id="a" width="41" height="47" x="-10" y="-10" filterUnits="userSpaceOnUse"><feOffset dy="1" in="SourceGraphic" result="FeOffset1131Out"/><feGaussianBlur in="FeOffset1131Out" result="FeGaussianBlur1132Out" stdDeviation="0 0"/></filter><mask id="b" width="2" height="2" x="-1" y="-1"><path fill="#fff" d="M0 0h21v26H0z"/><path d="M19.617 26H1.457a.678.678 0 01-.672-.684V.684c0-.378.3-.684.672-.684h12.109a.666.666 0 01.47.197l.001.001v.001h.001L14.04.2l6.053 6.158.001.001h.001v.002h.001l.001.001a.688.688 0 01.193.478v18.476a.678.678 0 01-.672.684zM2.13 24.632h16.814V7.526h-5.38a.678.678 0 01-.673-.684V1.37H2.13zM14.236 6.158h3.757l-3.757-3.822zm2.354 14.71H4.484a.678.678 0 01-.673-.684c0-.378.301-.684.673-.684H16.59c.372 0 .673.306.673.684a.678.678 0 01-.673.684zm0-3.078H4.484a.679.679 0 01-.673-.685c0-.378.301-.684.673-.684H16.59c.372 0 .673.306.673.684a.679.679 0 01-.673.685zm-6.053-3.08H4.484a.678.678 0 01-.673-.684c0-.377.301-.684.673-.684h6.053a.68.68 0 01.673.684.678.678 0 01-.673.685zm-.473-7.184h-5.58a.678.678 0 01-.673-.684V3.763c0-.378.301-.684.673-.684h5.58c.371 0 .673.306.673.684v3.08a.678.678 0 01-.673.683zM5.156 6.158h4.236v-1.71H5.156z"/></mask></defs><g filter="url(#a)"><path fill="none" d="M19.617 26H1.457a.678.678 0 01-.672-.684V.684c0-.378.3-.684.672-.684h12.109a.666.666 0 01.47.197l.001.001v.001h.001L14.04.2l6.053 6.158.001.001h.001v.002h.001l.001.001a.688.688 0 01.193.478v18.476a.678.678 0 01-.672.684zM2.13 24.632h16.814V7.526h-5.38a.678.678 0 01-.673-.684V1.37H2.13zM14.236 6.158h3.757l-3.757-3.822zm2.354 14.71H4.484a.678.678 0 01-.673-.684c0-.378.301-.684.673-.684H16.59c.372 0 .673.306.673.684a.678.678 0 01-.673.684zm0-3.078H4.484a.679.679 0 01-.673-.685c0-.378.301-.684.673-.684H16.59c.372 0 .673.306.673.684a.679.679 0 01-.673.685zm-6.053-3.08H4.484a.678.678 0 01-.673-.684c0-.377.301-.684.673-.684h6.053a.68.68 0 01.673.684.678.678 0 01-.673.685zm-.473-7.184h-5.58a.678.678 0 01-.673-.684V3.763c0-.378.301-.684.673-.684h5.58c.371 0 .673.306.673.684v3.08a.678.678 0 01-.673.683zM5.156 6.158h4.236v-1.71H5.156z" mask="url(&quot;#b&quot;)"/><path fill="#fff" d="M19.617 26H1.457a.678.678 0 01-.672-.684V.684c0-.378.3-.684.672-.684h12.109a.666.666 0 01.47.197l.001.001v.001h.001L14.04.2l6.053 6.158.001.001h.001v.002h.001l.001.001a.688.688 0 01.193.478v18.476a.678.678 0 01-.672.684zM2.13 24.632h16.814V7.526h-5.38a.678.678 0 01-.673-.684V1.37H2.13zM14.236 6.158h3.757l-3.757-3.822zm2.354 14.71H4.484a.678.678 0 01-.673-.684c0-.378.301-.684.673-.684H16.59c.372 0 .673.306.673.684a.678.678 0 01-.673.684zm0-3.078H4.484a.679.679 0 01-.673-.685c0-.378.301-.684.673-.684H16.59c.372 0 .673.306.673.684a.679.679 0 01-.673.685zm-6.053-3.08H4.484a.678.678 0 01-.673-.684c0-.377.301-.684.673-.684h6.053a.68.68 0 01.673.684.678.678 0 01-.673.685zm-.473-7.184h-5.58a.678.678 0 01-.673-.684V3.763c0-.378.301-.684.673-.684h5.58c.371 0 .673.306.673.684v3.08a.678.678 0 01-.673.683zM5.156 6.158h4.236v-1.71H5.156z"/></g><path fill="#fff" d="M19.617 26H1.457a.678.678 0 01-.672-.684V.684c0-.378.3-.684.672-.684h12.109a.666.666 0 01.47.197l.001.001v.001h.001L14.04.2l6.053 6.158.001.001h.001v.002h.001l.001.001a.688.688 0 01.193.478v18.476a.678.678 0 01-.672.684zM2.13 24.632h16.814V7.526h-5.38a.678.678 0 01-.673-.684V1.37H2.13zM14.236 6.158h3.757l-3.757-3.822zm2.354 14.71H4.484a.678.678 0 01-.673-.684c0-.378.301-.684.673-.684H16.59c.372 0 .673.306.673.684a.678.678 0 01-.673.684zm0-3.078H4.484a.679.679 0 01-.673-.685c0-.378.301-.684.673-.684H16.59c.372 0 .673.306.673.684a.679.679 0 01-.673.685zm-6.053-3.08H4.484a.678.678 0 01-.673-.684c0-.377.301-.684.673-.684h6.053a.68.68 0 01.673.684.678.678 0 01-.673.685zm-.473-7.184h-5.58a.678.678 0 01-.673-.684V3.763c0-.378.301-.684.673-.684h5.58c.371 0 .673.306.673.684v3.08a.678.678 0 01-.673.683zM5.156 6.158h4.236v-1.71H5.156z"/><path fill="#7d7d7d" d="M19.617 26H1.457a.678.678 0 01-.672-.684V.684c0-.378.3-.684.672-.684h12.109a.666.666 0 01.47.197l.001.001v.001h.001L14.04.2l6.053 6.158.001.001h.001v.002h.001l.001.001a.688.688 0 01.193.478v18.476a.678.678 0 01-.672.684zM2.13 24.632h16.814V7.526h-5.38a.678.678 0 01-.673-.684V1.37H2.13zM14.236 6.158h3.757l-3.757-3.822zm2.354 14.71H4.484a.678.678 0 01-.673-.684c0-.378.301-.684.673-.684H16.59c.372 0 .673.306.673.684a.678.678 0 01-.673.684zm0-3.078H4.484a.679.679 0 01-.673-.685c0-.378.301-.684.673-.684H16.59c.372 0 .673.306.673.684a.679.679 0 01-.673.685zm-6.053-3.08H4.484a.678.678 0 01-.673-.684c0-.377.301-.684.673-.684h6.053a.68.68 0 01.673.684.678.678 0 01-.673.685zm-.473-7.184h-5.58a.678.678 0 01-.673-.684V3.763c0-.378.301-.684.673-.684h5.58c.371 0 .673.306.673.684v3.08a.678.678 0 01-.673.683zM5.156 6.158h4.236v-1.71H5.156z"/></svg>