<svg xmlns="http://www.w3.org/2000/svg" width="53" height="56"><path fill="#fff" d="M50.857 52.574a2.997 2.997 0 01-3.99 3.244l-11.523-4.2a26.088 26.088 0 01-8.75 1.5c-8.077 0-15.868-3.746-20.84-10.02C1.35 37.543-.633 30.599.17 23.547c.804-7.053 4.298-13.369 9.84-17.787A26.512 26.512 0 0126.47 0c8.15 0 15.72 3.655 20.77 10.029 6.934 8.747 7.667 20.88 1.89 30.37zm-7.382-14.46c5.061-7.481 4.69-17.266-.923-24.349-3.909-4.931-9.769-7.76-16.077-7.76a20.243 20.243 0 00-12.74 4.458c-4.288 3.418-6.992 8.307-7.614 13.766a20.473 20.473 0 004.321 15.132c3.849 4.855 9.883 7.753 16.142 7.754 2.601 0 5.133-.487 7.527-1.448a2.998 2.998 0 011.825-.13c.24.026.478.08.709.164l7.58 2.763-1.083-7.63c-.328-.9-.208-1.92.333-2.72zm-17.92-26.086a3.01 3.01 0 01-1.527 3.96 14.515 14.515 0 00-7.91 8.774 2.99 2.99 0 01-5.517.431 2.991 2.991 0 01-.178-2.29 20.525 20.525 0 0111.182-12.409 2.96 2.96 0 011.211-.257c1.186 0 2.26.703 2.74 1.79z"/></svg>